PathFileType	4	(x/y/z)	S06_BK_Cal_T01
DataRate	CameraRate	NumFrames	NumMarkers	Units	OrigDataRate	OrigDataStartFrame	OrigNumFrames
240	240	7	51	mm	240	1	2880
Frame#	Time	Sternum			R.Acromium			L.Acromium			Top.Head			R.ASIS			L.ASIS			R.PSIS			L.PSIS			R.Great.Tro			L.Great.Tro			R.Iliac.Crest			L.Iliac.Crest			V.Sacral			R.Thigh.Upper.Post			R.Thigh.Lower.Ant			R.Thigh.Lower.Post			R.Thigh.Upper.Ant			R.Knee.Lat			R.Knee.Med			R.Shank.Upper.Post			R.Shank.Lower.Ant			R.Shank.Lower.Post			R.Shank.Upper.Ant			R.Ankle.Lat			R.Ankle.Med			R.Heel.Upper			R.Heel.Med			R.Heel.Lat			R.Toe.Lat			R.Toe.Med			R.Toe.Tip			L.Thigh.Upper.Post			L.Thigh.Lower.Ant			L.Thigh.Lower.Post			L.Thigh.Upper.Ant			L.Knee.Lat			L.Knee.Med			L.Shank.Upper.Post			L.Shank.Lower.Ant			L.Shank.Lower.Post			L.Shank.Upper.Ant			L.Ankle.Lat			L.Ankle.Med			L.Heel.Upper			L.Heel.Med			L.Heel.Lat			L.Toe.Lat			L.Toe.Med			L.Toe.Tip			Cervical.Spine			Back			
		X1	Y1	Z1	X2	Y2	Z2	X3	Y3	Z3	X4	Y4	Z4	X5	Y5	Z5	X6	Y6	Z6	X7	Y7	Z7	X8	Y8	Z8	X9	Y9	Z9	X10	Y10	Z10	X11	Y11	Z11	X12	Y12	Z12	X13	Y13	Z13	X14	Y14	Z14	X15	Y15	Z15	X16	Y16	Z16	X17	Y17	Z17	X18	Y18	Z18	X19	Y19	Z19	X20	Y20	Z20	X21	Y21	Z21	X22	Y22	Z22	X23	Y23	Z23	X24	Y24	Z24	X25	Y25	Z25	X26	Y26	Z26	X27	Y27	Z27	X28	Y28	Z28	X29	Y29	Z29	X30	Y30	Z30	X31	Y31	Z31	X32	Y32	Z32	X33	Y33	Z33	X34	Y34	Z34	X35	Y35	Z35	X36	Y36	Z36	X37	Y37	Z37	X38	Y38	Z38	X39	Y39	Z39	X40	Y40	Z40	X41	Y41	Z41	X42	Y42	Z42	X43	Y43	Z43	X44	Y44	Z44	X45	Y45	Z45	X46	Y46	Z46	X47	Y47	Z47	X48	Y48	Z48	X49	Y49	Z49	X50	Y50	Z50	X51	Y51	Z51	

1	0	719.47	1239.9	324.25	605.85	1471.3	482.82	602.99	1468.2	152.03	688.88	1763.2	324.92	662.88	1007.4	448.09	670.07	1001.2	195.7	465.11	1030.4	349.96	466.82	1033.3	269.29	610.06	944.16	498.91	579.26	941.58	134.14	581.18	1085.6	475.49	605.62	1079	158.67	451.56	996.46	312	690.04	705.9	514.81	770.82	647.03	489.02	708.21	618.93	501.47	753.01	736.6	494.86	756.94	516.54	496.59	765.59	514.59	369.63	645.29	317.1	506.31	680.9	236.51	485.18	615.89	245.55	494.61	709.3	307.43	496.77	596.64	112.64	474.27	610.8	113.3	386.26	523	74.258	428.46	531.54	43.468	397.74	529.37	43.122	463.14	704.63	35.837	507.03	734.49	44.381	387.62	799.66	54.301	437.17	717.49	704.52	114.81	793.86	640.78	164.01	730.79	614.27	122.57	771.64	733.48	155.56	737.12	519.36	129.84	768.69	519.16	247.36	631.77	321.11	126.46	674.35	242.44	126.98	604.88	252.95	140.19	696.82	310.03	119.41	596.35	110.25	135.14	608.79	109.92	226.68	518.24	71.744	178.76	525.04	45.454	210.98	521.58	46.053	148.95	697.44	46.922	100.07	726.82	43.838	217.53	794.49	58.415	158.91	562.89	1506.2	318.28	482.21	1245.5	315.35
2	0.0041667	719.44	1239.9	324.2	605.87	1471.3	482.8	603.05	1468.3	152.04	688.84	1763.1	324.98	662.9	1007.3	448.03	670.08	1001.2	195.69	465.12	1030.4	349.96	466.84	1033.3	269.29	610.07	944.16	498.88	579.28	941.57	134.17	581.2	1085.6	475.51	605.68	1079	158.68	451.58	996.51	312.03	690.05	705.92	514.82	770.83	647.03	489.01	708.22	618.96	501.49	753	736.62	494.82	756.95	516.56	496.6	765.6	514.58	369.63	645.36	317.14	506.41	680.9	236.51	485.17	615.92	245.63	494.76	709.29	307.42	496.76	596.64	112.65	474.28	610.87	113.33	386.26	522.94	74.306	428.46	531.56	43.495	397.74	529.36	43.137	463.15	704.63	35.877	507.05	734.5	44.374	387.62	799.66	54.328	437.08	717.52	704.53	114.83	793.81	640.79	164.02	730.82	614.3	122.6	771.58	733.47	155.56	737.12	519.39	129.83	768.7	519.16	247.34	631.79	321.1	126.5	674.3	242.46	126.96	604.91	252.97	140.2	696.76	310.04	119.42	596.36	110.29	135.14	608.83	109.93	226.66	518.2	71.779	178.74	525.03	45.46	210.99	521.59	46.057	148.98	697.44	46.913	100.1	726.81	43.85	217.52	794.49	58.422	158.91	562.9	1506.2	318.3	482.23	1245.6	315.37
3	0.0083333	719.41	1239.9	324.16	605.89	1471.3	482.79	603.11	1468.3	152.04	688.81	1763.1	325.03	662.92	1007.2	447.96	670.1	1001.2	195.68	465.14	1030.4	349.95	466.86	1033.4	269.3	610.09	944.15	498.86	579.3	941.57	134.2	581.22	1085.6	475.52	605.73	1079	158.7	451.6	996.55	312.06	690.06	705.94	514.83	770.84	647.03	489	708.23	618.98	501.51	752.98	736.63	494.78	756.95	516.57	496.6	765.6	514.57	369.64	645.43	317.17	506.52	680.89	236.5	485.16	615.95	245.71	494.9	709.29	307.42	496.75	596.64	112.67	474.28	610.94	113.36	386.27	522.88	74.353	428.46	531.57	43.521	397.74	529.35	43.152	463.16	704.63	35.915	507.07	734.5	44.368	387.62	799.66	54.355	437	717.55	704.55	114.85	793.76	640.8	164.02	730.85	614.33	122.62	771.53	733.46	155.55	737.13	519.42	129.83	768.71	519.17	247.33	631.82	321.09	126.54	674.24	242.47	126.95	604.93	252.98	140.22	696.71	310.05	119.43	596.37	110.33	135.13	608.87	109.94	226.65	518.17	71.813	178.73	525.02	45.466	211	521.6	46.061	149.02	697.43	46.903	100.12	726.8	43.862	217.5	794.48	58.43	158.9	562.91	1506.3	318.33	482.25	1245.6	315.39
4	0.0125	719.39	1239.9	324.12	605.92	1471.4	482.77	603.17	1468.4	152.05	688.77	1763.1	325.09	662.94	1007.1	447.9	670.11	1001.2	195.67	465.15	1030.4	349.95	466.88	1033.4	269.3	610.11	944.15	498.84	579.31	941.57	134.22	581.24	1085.6	475.53	605.79	1079	158.72	451.62	996.6	312.09	690.07	705.96	514.84	770.85	647.03	488.99	708.24	619.01	501.52	752.96	736.65	494.74	756.95	516.59	496.61	765.6	514.56	369.64	645.49	317.21	506.61	680.88	236.5	485.15	615.98	245.79	495.04	709.28	307.42	496.73	596.64	112.68	474.29	611	113.39	386.27	522.82	74.399	428.46	531.58	43.547	397.74	529.33	43.167	463.17	704.63	35.953	507.09	734.5	44.362	387.62	799.66	54.381	436.92	717.57	704.57	114.87	793.7	640.81	164.02	730.88	614.36	122.65	771.47	733.46	155.55	737.14	519.45	129.82	768.71	519.17	247.31	631.84	321.09	126.58	674.19	242.48	126.93	604.96	253	140.23	696.66	310.06	119.44	596.38	110.37	135.13	608.91	109.94	226.63	518.13	71.846	178.71	525.01	45.472	211.01	521.61	46.064	149.04	697.42	46.895	100.15	726.79	43.874	217.49	794.48	58.437	158.89	562.92	1506.3	318.35	482.26	1245.6	315.41
5	0.016667	719.36	1239.9	324.08	605.94	1471.4	482.76	603.23	1468.4	152.06	688.74	1763.1	325.13	662.96	1007.1	447.85	670.13	1001.2	195.65	465.17	1030.4	349.94	466.89	1033.4	269.31	610.12	944.14	498.82	579.33	941.57	134.24	581.26	1085.6	475.54	605.84	1079	158.73	451.64	996.64	312.11	690.08	705.98	514.85	770.86	647.03	488.99	708.24	619.03	501.54	752.95	736.67	494.71	756.96	516.6	496.61	765.6	514.55	369.64	645.55	317.24	506.71	680.87	236.5	485.14	616.01	245.86	495.17	709.27	307.41	496.72	596.64	112.7	474.29	611.07	113.41	386.28	522.77	74.441	428.46	531.59	43.571	397.74	529.32	43.182	463.18	704.63	35.99	507.11	734.5	44.357	387.62	799.66	54.406	436.85	717.6	704.58	114.89	793.65	640.81	164.02	730.91	614.39	122.67	771.42	733.45	155.54	737.14	519.48	129.82	768.72	519.18	247.3	631.86	321.08	126.61	674.13	242.49	126.92	604.98	253.02	140.24	696.61	310.07	119.44	596.39	110.4	135.13	608.95	109.95	226.61	518.1	71.877	178.7	525	45.478	211.02	521.61	46.068	149.07	697.41	46.887	100.17	726.79	43.886	217.47	794.47	58.445	158.88	562.93	1506.3	318.37	482.28	1245.7	315.43
6	0.020833	719.34	1239.8	324.04	605.96	1471.4	482.75	603.29	1468.4	152.06	688.71	1763	325.17	662.98	1007	447.8	670.15	1001.2	195.64	465.19	1030.4	349.94	466.91	1033.4	269.31	610.14	944.14	498.8	579.35	941.58	134.27	581.28	1085.6	475.55	605.88	1079.1	158.74	451.66	996.68	312.13	690.09	705.99	514.86	770.87	647.04	488.98	708.25	619.05	501.55	752.93	736.68	494.67	756.96	516.61	496.61	765.6	514.54	369.64	645.61	317.27	506.79	680.86	236.49	485.13	616.03	245.93	495.28	709.27	307.41	496.7	596.64	112.71	474.29	611.12	113.44	386.28	522.72	74.481	428.46	531.6	43.593	397.73	529.31	43.195	463.19	704.63	36.024	507.12	734.5	44.353	387.61	799.66	54.429	436.78	717.62	704.6	114.9	793.61	640.82	164.03	730.93	614.42	122.69	771.38	733.45	155.54	737.15	519.5	129.81	768.72	519.18	247.28	631.87	321.08	126.64	674.08	242.51	126.9	605.01	253.03	140.26	696.57	310.07	119.45	596.39	110.43	135.12	608.99	109.96	226.59	518.07	71.905	178.69	525	45.484	211.03	521.62	46.072	149.1	697.41	46.88	100.19	726.78	43.897	217.45	794.46	58.453	158.87	562.95	1506.3	318.39	482.3	1245.7	315.45
7	0.025	719.33	1239.8	324	605.98	1471.4	482.73	603.34	1468.4	152.06	688.69	1763	325.21	663	1007	447.75	670.16	1001.2	195.63	465.21	1030.4	349.94	466.93	1033.4	269.31	610.16	944.14	498.78	579.37	941.58	134.28	581.3	1085.6	475.56	605.93	1079.1	158.75	451.68	996.71	312.15	690.1	706.01	514.87	770.87	647.04	488.97	708.26	619.07	501.56	752.92	736.7	494.64	756.96	516.62	496.61	765.6	514.54	369.64	645.66	317.3	506.86	680.86	236.49	485.12	616.06	245.99	495.39	709.26	307.41	496.69	596.63	112.72	474.3	611.17	113.46	386.29	522.68	74.516	428.46	531.61	43.613	397.73	529.3	43.208	463.2	704.63	36.056	507.14	734.5	44.351	387.61	799.66	54.45	436.71	717.64	704.61	114.92	793.56	640.83	164.03	730.95	614.44	122.71	771.33	733.44	155.53	737.15	519.53	129.81	768.73	519.19	247.27	631.89	321.08	126.66	674.04	242.52	126.89	605.03	253.05	140.27	696.53	310.08	119.46	596.4	110.46	135.12	609.03	109.96	226.58	518.04	71.931	178.67	524.99	45.49	211.04	521.63	46.075	149.12	697.4	46.874	100.2	726.77	43.907	217.44	794.46	58.46	158.87	562.96	1506.3	318.41	482.32	1245.7	315.46
